<?xml version="1.0" encoding="iso-8859-1"?>
<!-- Generator: Adobe Illustrator 19.0.0, SVG Export Plug-In . SVG Version: 6.00 Build 0)  -->
<svg version="1.1" id="Capa_1" xmlns="http://www.w3.org/2000/svg" xmlns:xlink="http://www.w3.org/1999/xlink" x="0px" y="0px"
	 viewBox="0 0 512.002 512.002" style="enable-background:new 0 0 512.002 512.002;" xml:space="preserve">
<g>
	<g>
		<g>
			<path d="M137.143,237.712c0,5.047,4.096,9.143,9.143,9.143c5.047,0,9.143-4.096,9.143-9.143
				c-0.009-5.047-4.096-9.143-9.143-9.143C141.239,228.569,137.143,232.665,137.143,237.712z"/>
			<path d="M246.857,356.569h-74.789l-5.925,29.605c12.206,5.111,18.971,18.258,16.037,31.168
				c-2.935,12.91-14.72,21.833-27.941,21.166c-13.211-0.677-24.037-10.743-25.655-23.881c-1.618-13.138,6.437-25.527,19.099-29.385
				l6.455-32.265c1.728-8.53,9.216-14.674,17.929-14.693h74.789v-36.571h-19.968c-4.453,12.599-17.335,20.151-30.501,17.893
				c-13.166-2.258-22.793-13.678-22.793-27.035c0-13.358,9.627-24.777,22.793-27.035c13.166-2.258,26.048,5.294,30.501,17.893
				h19.968v-36.571h-74.825c-4.453,12.599-17.335,20.151-30.501,17.893c-13.166-2.258-22.793-13.678-22.793-27.035
				s9.627-24.777,22.793-27.035c13.166-2.258,26.048,5.294,30.501,17.893h74.825v-72.046l-24.805,34.743
				c-3.465,4.809-9.024,7.653-14.949,7.643c-2.505,0-4.983-0.521-7.278-1.527l-33.207-14.574
				c-8.951,9.957-23.726,12.087-35.127,5.074c-11.401-7.013-16.155-21.175-11.301-33.646s17.929-19.685,31.067-17.152
				c13.138,2.533,22.592,14.098,22.455,27.483c0,0.457-0.11,0.887-0.137,1.335l33.582,14.738l39.698-55.579V68.569
				c0.018-37.093-29.477-67.465-66.551-68.535s-68.279,27.557-70.391,64.585c25.883,2.981,48.832,18.002,61.934,40.512
				c1.637,2.825,1.637,6.309,0.009,9.143c-1.637,2.834-4.654,4.581-7.918,4.581c-3.273,0-6.29-1.737-7.927-4.562
				c-14.482-25.088-44.005-37.312-71.991-29.824c-27.986,7.488-47.442,32.85-47.451,61.815c-0.027,8.274,1.573,16.466,4.718,24.119
				c10.185-3.831,20.974-5.815,31.854-5.833c5.047,0,9.143,4.096,9.143,9.143s-4.096,9.143-9.143,9.143
				c-11.666,0-23.15,2.807-33.499,8.201c-2.258,1.17-4.453,2.441-6.574,3.831c-1.152,0.759-2.24,1.582-3.346,2.395
				c-1.39,1.033-2.752,2.085-4.059,3.2c-1.189,1.015-2.35,2.057-3.465,3.145c-0.85,0.823-1.646,1.691-2.459,2.56
				c-2.066,2.213-3.995,4.553-5.778,7.003c-0.567,0.795-1.17,1.554-1.71,2.368c-0.933,1.399-1.792,2.862-2.633,4.334
				c-0.631,1.106-1.216,2.222-1.783,3.355c-0.677,1.353-1.381,2.697-1.975,4.096c-1.024,2.405-1.92,4.873-2.679,7.378
				c-0.311,1.006-0.53,2.048-0.795,3.072c-0.521,2.021-0.969,4.069-1.307,6.144c-0.155,0.96-0.32,1.92-0.439,2.889
				c-0.402,3.035-0.613,6.107-0.64,9.17c0.037,20.645,8.786,40.311,24.073,54.181c10.249-10.697,23.067-18.587,37.23-22.93
				c4.827-1.481,9.947,1.225,11.429,6.053c1.481,4.827-1.225,9.947-6.053,11.429c-13.495,4.142-25.371,12.361-34.002,23.534
				c-0.055,0.082-0.064,0.183-0.128,0.265c-6.665,8.585-11.145,18.661-13.065,29.358c-0.073,0.393-0.219,0.759-0.283,1.152
				c-0.613,3.721-0.914,7.479-0.914,11.246c-0.128,29.211,18.368,55.269,45.989,64.786c-0.101-1.783-0.274-3.547-0.274-5.358
				c-0.064-21.778,7.003-42.981,20.105-60.38c3.045-4.023,8.759-4.827,12.791-1.801c4.032,3.026,4.846,8.75,1.829,12.782
				c-14.071,18.761-19.465,42.624-14.83,65.609c0.128,0.64,0.302,1.253,0.448,1.883c0.439,1.929,0.914,3.849,1.481,5.733
				c0.21,0.704,0.466,1.381,0.695,2.066c0.603,1.801,1.234,3.584,1.957,5.33c0.265,0.64,0.549,1.271,0.832,1.902
				c0.777,1.765,1.609,3.502,2.505,5.202c0.293,0.558,0.594,1.115,0.905,1.664c0.978,1.746,2.021,3.456,3.118,5.12
				c0.302,0.457,0.594,0.923,0.905,1.371c1.198,1.755,2.478,3.447,3.803,5.093c0.265,0.329,0.512,0.667,0.786,0.997
				c1.527,1.829,3.118,3.584,4.791,5.275c0.119,0.119,0.219,0.247,0.338,0.366c3.63,3.611,7.579,6.885,11.813,9.765
				c0.603,0.411,1.243,0.777,1.856,1.17c1.463,0.942,2.935,1.856,4.453,2.706c0.896,0.503,1.819,0.951,2.734,1.417
				c1.298,0.658,2.615,1.307,3.95,1.902c1.024,0.457,2.075,0.887,3.127,1.298c1.289,0.512,2.597,0.987,3.922,1.435
				c1.097,0.375,2.194,0.731,3.31,1.051c1.371,0.402,2.77,0.75,4.169,1.079c1.088,0.256,2.167,0.521,3.264,0.731
				c1.6,0.302,3.227,0.53,4.864,0.741c0.933,0.128,1.847,0.283,2.779,0.375c2.597,0.247,5.211,0.402,7.872,0.402
				c45.422-0.055,82.231-36.864,82.286-82.286V356.569z"/>
			<path d="M192,292.569c0,5.047,4.096,9.143,9.143,9.143c5.047,0,9.143-4.096,9.143-9.143c-0.009-5.047-4.096-9.143-9.143-9.143
				C196.096,283.426,192,287.522,192,292.569z"/>
			<path d="M137.143,164.569c0,5.047,4.096,9.143,9.143,9.143c5.047-0.009,9.134-4.096,9.143-9.143c0-5.047-4.096-9.143-9.143-9.143
				C141.239,155.426,137.143,159.522,137.143,164.569z"/>
			<path d="M265.143,211.207v89.582c21.285-4.343,36.571-23.067,36.571-44.791C301.714,234.274,286.427,215.549,265.143,211.207z"/>
			<path d="M265.143,365.245c56.841-4.709,100.571-52.215,100.571-109.248s-43.73-104.539-100.571-109.257v45.989
				c31.479,4.507,54.857,31.47,54.857,63.269c0,31.799-23.378,58.761-54.857,63.269V365.245z"/>
			<path d="M146.286,411.426c0,5.047,4.096,9.143,9.143,9.143s9.143-4.096,9.143-9.143s-4.096-9.143-9.143-9.143
				S146.295,406.379,146.286,411.426z"/>
			<path d="M509.349,219.426h-48.183c-4.297,0-8.009-2.99-8.923-7.168c-4.974-22.757-13.97-44.443-26.56-64.037
				c-2.331-3.621-1.819-8.366,1.225-11.41l34.094-34.094c-14.619-19.666-32.046-37.093-51.712-51.712l-34.094,34.094
				c-3.045,3.045-7.79,3.557-11.41,1.225c-19.593-12.59-41.28-21.586-64.037-26.56c-4.187-0.923-7.177-4.635-7.177-8.933V2.649
				c-19.749-2.834-39.762-3.337-59.621-1.49c20.352,16.457,32.192,41.234,32.192,67.41v59.886
				C332.096,133.181,384,188.88,384,255.997s-51.904,122.807-118.857,127.534v46.181c-0.027,31.57-14.912,61.294-40.192,80.238
				c22.473,2.807,45.211,2.597,67.621-0.603v-48.183c0-4.297,2.99-8.009,7.168-8.923c22.757-4.974,44.443-13.97,64.037-26.56
				c3.621-2.322,8.366-1.81,11.41,1.225l34.094,34.094c19.675-14.619,37.093-32.046,51.712-51.712l-34.094-34.094
				c-3.035-3.045-3.547-7.79-1.225-11.41c12.59-19.593,21.586-41.28,26.56-64.037c0.923-4.187,4.635-7.177,8.933-7.177h48.183
				C512.887,268.313,512.887,243.673,509.349,219.426z"/>
		</g>
	</g>
</g>
<g>
</g>
<g>
</g>
<g>
</g>
<g>
</g>
<g>
</g>
<g>
</g>
<g>
</g>
<g>
</g>
<g>
</g>
<g>
</g>
<g>
</g>
<g>
</g>
<g>
</g>
<g>
</g>
<g>
</g>
</svg>
