<?xml version="1.0" encoding="utf-8"?>
<!-- Generator: Adobe Illustrator 18.0.0, SVG Export Plug-In . SVG Version: 6.00 Build 0)  -->
<!DOCTYPE svg PUBLIC "-//W3C//DTD SVG 1.1//EN" "http://www.w3.org/Graphics/SVG/1.1/DTD/svg11.dtd">
<svg version="1.1" id="Capa_1" xmlns="http://www.w3.org/2000/svg" xmlns:xlink="http://www.w3.org/1999/xlink" x="0px" y="0px"
	 viewBox="24.5 0 55.3 50" enable-background="new 24.5 0 55.3 50" xml:space="preserve">
<path fill="#F34791" d="M52.9,31.7c0.9-0.1,1.7-0.5,2.2-1.2l7.8-10.8c0.2-0.3,0.2-0.8-0.1-1.1c-0.3-0.3-0.7-0.3-1.1-0.1l-10.8,7.8
	c-0.7,0.5-1.1,1.3-1.2,2.2c-0.1,0.9,0.2,1.7,0.9,2.3c0.6,0.6,1.3,0.9,2.1,0.9C52.7,31.7,52.8,31.7,52.9,31.7z M51.3,28.6
	c0-0.4,0.2-0.7,0.5-1l6.6-4.8l-4.8,6.6c-0.2,0.3-0.6,0.5-1,0.5c-0.4,0-0.8-0.1-1-0.4C51.4,29.3,51.3,29,51.3,28.6z"/>
<path fill="#8E5EDD" d="M71.5,16.3C71.5,16.3,71.5,16.3,71.5,16.3C71.5,16.2,71.5,16.2,71.5,16.3c-0.9-1.5-1.9-2.9-3-4.1l1.8-1.8
	l1.2,1.2L75,8.1l-3.5-3.5l-3.5,3.5l1.2,1.2L67.3,11c-1.2-1.1-2.6-2.1-4-3c0,0,0,0,0,0c0,0,0,0-0.1,0c-2.6-1.5-5.5-2.5-8.6-2.8v-1
	h1.3c1.1,0,2.1-0.9,2.1-2.1S57.1,0,55.9,0h-7.5c-1.1,0-2.1,0.9-2.1,2.1s0.9,2.1,2.1,2.1h1.3v1c-0.9,0.1-1.8,0.2-2.7,0.4
	c-0.4,0.1-0.7,0.5-0.6,1c0.1,0.4,0.5,0.7,1,0.6c0.8-0.2,1.5-0.3,2.3-0.4l0.9-0.1c0.3,0,0.5,0,0.8,0v1.6c0,0.5,0.4,0.8,0.8,0.8
	c0.5,0,0.8-0.4,0.8-0.8V6.7c3.1,0.1,6.1,1,8.7,2.4l-0.8,1.4c-0.2,0.4-0.1,0.9,0.3,1.1c0.1,0.1,0.3,0.1,0.4,0.1
	c0.3,0,0.6-0.1,0.7-0.4l0.8-1.4c2.6,1.7,4.8,3.9,6.5,6.5l-1.4,0.8c-0.4,0.2-0.5,0.7-0.3,1.1c0.2,0.3,0.4,0.4,0.7,0.4
	c0.1,0,0.3,0,0.4-0.1l1.4-0.8c1.4,2.7,2.2,5.7,2.4,8.8h-1.6c-0.5,0-0.8,0.4-0.8,0.8s0.4,0.8,0.8,0.8h1.6c-0.1,3.2-1,6.2-2.4,8.8
	L69,36.4c-0.4-0.2-0.9-0.1-1.1,0.3c-0.2,0.4-0.1,0.9,0.3,1.1l1.4,0.8c-1.7,2.6-3.9,4.8-6.5,6.5l-0.8-1.4c-0.2-0.4-0.7-0.5-1.1-0.3
	c-0.4,0.2-0.5,0.7-0.3,1.1l0.8,1.4c-2.6,1.4-5.6,2.2-8.7,2.4v-1.6c0-0.5-0.4-0.8-0.8-0.8s-0.8,0.4-0.8,0.8v1.6c-1.3,0-2.7-0.2-4-0.5
	c-0.4-0.1-0.9,0.2-1,0.6c-0.1,0.4,0.2,0.9,0.6,1c1.7,0.4,3.4,0.6,5,0.6c0,0,0.1,0,0.1,0c0,0,0,0,0,0c0,0,0,0,0,0c4,0,7.8-1.1,11-3
	c0,0,0.1,0,0.1,0c0,0,0,0,0,0c3.4-2,6.2-4.8,8.1-8.1c0,0,0,0,0.1-0.1c0,0,0,0,0-0.1c1.9-3.3,3-7.1,3-11.2S73.4,19.6,71.5,16.3z
	 M71.5,6.9l1.2,1.2l-1.2,1.2l-1.2-1.2L71.5,6.9z M51.3,5V2.5h-2.9c-0.2,0-0.4-0.2-0.4-0.4s0.2-0.4,0.4-0.4h7.5
	c0.2,0,0.4,0.2,0.4,0.4s-0.2,0.4-0.4,0.4H53V5c-0.3,0-0.6,0-0.8,0c0,0,0,0-0.1,0c0,0,0,0-0.1,0c-0.1,0-0.3,0-0.4,0
	C51.5,5,51.4,5,51.3,5z"/>
<path fill="#F34791" d="M44.7,11.7h-4.2c-0.5,0-0.8,0.4-0.8,0.8s0.4,0.8,0.8,0.8h4.2c0.5,0,0.8-0.4,0.8-0.8S45.1,11.7,44.7,11.7z"/>
<path fill="#F34791" d="M44.7,17.5h-8.3c-0.5,0-0.8,0.4-0.8,0.8c0,0.5,0.4,0.8,0.8,0.8h8.3c0.5,0,0.8-0.4,0.8-0.8
	C45.5,17.9,45.1,17.5,44.7,17.5z"/>
<path fill="#F34791" d="M44.7,23.3H32.2c-0.5,0-0.8,0.4-0.8,0.8s0.4,0.8,0.8,0.8h12.5c0.5,0,0.8-0.4,0.8-0.8S45.1,23.3,44.7,23.3z"
	/>
<path fill="#F34791" d="M44.7,29.2H28.8c-0.5,0-0.8,0.4-0.8,0.8s0.4,0.8,0.8,0.8h15.8c0.5,0,0.8-0.4,0.8-0.8S45.1,29.2,44.7,29.2z"
	/>
<path fill="#F34791" d="M44.7,35H33.8c-0.5,0-0.8,0.4-0.8,0.8s0.4,0.8,0.8,0.8h10.8c0.5,0,0.8-0.4,0.8-0.8S45.1,35,44.7,35z"/>
<path fill="#F34791" d="M44.7,40.8h-5.8c-0.5,0-0.8,0.4-0.8,0.8s0.4,0.8,0.8,0.8h5.8c0.5,0,0.8-0.4,0.8-0.8S45.1,40.8,44.7,40.8z"/>
</svg>
