<?xml version="1.0"?>
<svg xmlns="http://www.w3.org/2000/svg" xmlns:xlink="http://www.w3.org/1999/xlink" version="1.1" id="Capa_1" x="0px" y="0px" viewBox="0 0 480 480" style="enable-background:new 0 0 480 480;" xml:space="preserve" width="512px" height="512px"><g><g>
	<g>
		<path d="M256.001,0C146.123,0.109,56.866,88.758,56.005,198.633l-31.594,94.836c-1.397,4.192,0.868,8.723,5.061,10.121    c0.816,0.272,1.67,0.41,2.529,0.411h56v72c-0.001,4.417,3.579,7.999,7.996,8c0.001,0,0.003,0,0.004,0h104v88    c-0.001,4.417,3.579,7.999,7.996,8c0.001,0,0.003,0,0.004,0h240c4.417,0.001,7.999-3.579,8-7.996c0-0.001,0-0.003,0-0.004V199.945    C455.862,89.555,366.392,0.109,256.001,0z M440.001,464h-224v-88c0.001-4.417-3.579-7.999-7.996-8c-0.001,0-0.003,0-0.004,0h-104    v-72c0.001-4.417-3.579-7.999-7.996-8c-0.001,0-0.003,0-0.004,0H43.099l28.492-85.523c0.272-0.816,0.411-1.671,0.41-2.531    c0-101.62,82.38-184,184-184s184,82.38,184,184V464z" data-original="#000000" class="active-path" data-old_color="#1eaf13" fill="#1eaf13"/>
	</g>
</g><g>
	<g>
		<path d="M382.574,118.276c-9.242-13.411-20.691-25.156-33.861-34.737l-9.422,12.938c57.167,41.583,69.8,121.635,28.218,178.802    s-121.635,69.8-178.802,28.218s-69.8-121.635-28.218-178.802c8.519-11.711,18.963-21.892,30.888-30.108l-9.086-13.172    c-65.486,45.128-81.99,134.797-36.862,200.283s134.797,81.99,200.283,36.862S427.701,183.762,382.574,118.276z" data-original="#000000" class="active-path" data-old_color="#1eaf13" fill="#1eaf13"/>
	</g>
</g><g>
	<g>
		<path d="M304,39.999c-1.815,0-3.576,0.617-4.995,1.751l-35.004,28.003L228.997,41.75c-3.452-2.759-8.487-2.197-11.245,1.255    c-1.133,1.418-1.751,3.179-1.751,4.995v72c0.001,2.431,1.106,4.73,3.004,6.25l36.996,29.597V200h16v-44.153l36.996-29.597    c1.898-1.52,3.003-3.819,3.004-6.25V48C312.001,43.581,308.419,39.999,304,39.999z M256.001,135.352l-24-19.195V64.648l24,19.195    V135.352z M296.001,116.156l-24,19.196V83.844l24-19.195V116.156z" data-original="#000000" class="active-path" data-old_color="#1eaf13" fill="#1eaf13"/>
	</g>
</g><g>
	<g>
		<path d="M341.517,130.664l-11.922,10.672c32.399,36.226,29.297,91.859-6.93,124.258c-36.226,32.399-91.859,29.297-124.258-6.93    c-29.875-33.404-29.875-83.924,0-117.328l-11.922-10.672c-38.293,42.811-34.63,108.558,8.181,146.851s108.558,34.63,146.851-8.181    C376.829,229.855,376.829,170.143,341.517,130.664z" data-original="#000000" class="active-path" data-old_color="#1eaf13" fill="#1eaf13"/>
	</g>
</g><g>
	<g>
		<path d="M308.79,154.289l-11.195,11.422c18.935,18.553,19.245,48.944,0.691,67.879s-48.944,19.245-67.879,0.691    c-18.935-18.553-19.245-48.944-0.691-67.879c0.228-0.233,0.458-0.463,0.691-0.691l-11.195-11.422    c-25.247,24.734-25.663,65.253-0.929,90.5c12.038,12.288,28.516,19.212,45.718,19.211c35.344,0.002,63.998-28.649,64-63.993    C328.002,182.805,321.078,166.327,308.79,154.289z" data-original="#000000" class="active-path" data-old_color="#1eaf13" fill="#1eaf13"/>
	</g>
</g></g> </svg>
