<?xml version="1.0"?>
<svg xmlns="http://www.w3.org/2000/svg" xmlns:xlink="http://www.w3.org/1999/xlink" version="1.1" id="Capa_1" x="0px" y="0px" viewBox="0 0 512.013 512.013" style="enable-background:new 0 0 512.013 512.013;" xml:space="preserve" width="512px" height="512px"><g><g>
	<g>
		<g>
			<path d="M448.013,372.167c-1.525,6.368-11.829,43.84-42.667,43.84c-5.891,0-10.667,4.776-10.667,10.667v64H192.013v-74.667     c0-33.749-20.928-42.667-32-42.667h-64c-0.866,0.056-1.735,0.056-2.602,0c-11.064-0.719-19.45-10.27-18.732-21.333v-39.765     c0.001-3.055-1.308-5.964-3.595-7.989c-10.698-9.857-24.539-15.612-39.072-16.245c-0.047,0.006-0.095,0.011-0.142,0.016     c-5.143,0.545-9.755-3.182-10.301-8.326l51.776-93.867c0.873-1.577,1.331-3.35,1.333-5.152v-20.672     C74.768,83.46,136.8,21.428,213.347,21.34V0.007c-88.324,0.1-159.9,71.676-160,160v17.931l-52,94.251     c-0.873,1.577-1.331,3.35-1.333,5.152c-0.018,0.606-0.018,1.213,0,1.819c0.502,17.171,14.829,30.684,32,30.181     c7.758,0.431,15.2,3.218,21.333,7.989v34.677c-0.024,0.815-0.024,1.631,0,2.447c0.676,22.888,19.778,40.896,42.667,40.22h63.691     c1.835,0.117,10.976,1.707,10.976,21.333v85.333c0,5.891,4.776,10.667,10.667,10.667h224c5.891,0,10.667-4.776,10.667-10.667     v-64.939c33.333-6.304,49.237-41.483,53.12-60.928c0.148-0.701,0.22-1.417,0.213-2.133v-21.333h-21.333V372.167z" data-original="#000000" class="active-path" data-old_color="#1eaf13" fill="#1eaf13"/>
			<path d="M501.347,138.673h-38.859c-2.262-7.005-5.079-13.818-8.427-20.373l27.467-27.477c4.164-4.165,4.164-10.917,0-15.083     l-45.259-45.248c-4.165-4.164-10.917-4.164-15.083,0L393.72,57.959c-6.556-3.347-13.369-6.165-20.373-8.427V10.673     c0-5.891-4.776-10.667-10.667-10.667h-64c-5.891,0-10.667,4.776-10.667,10.667v38.859c-7.005,2.262-13.818,5.079-20.373,8.427     l-27.477-27.467c-4.165-4.164-10.917-4.164-15.083,0l-45.248,45.259c-4.164,4.165-4.164,10.917,0,15.083l27.467,27.467     c-3.347,6.556-6.165,13.369-8.427,20.373h-38.859c-5.891,0-10.667,4.776-10.667,10.667v64.011     c0,5.891,4.776,10.667,10.667,10.667h38.859c2.262,7.005,5.079,13.818,8.427,20.373l-27.467,27.467     c-4.164,4.165-4.164,10.917,0,15.083l45.259,45.248c4.165,4.164,10.917,4.164,15.083,0l27.467-27.467     c6.556,3.347,13.369,6.165,20.373,8.427v38.859c0,5.891,4.776,10.667,10.667,10.667h64c5.891,0,10.667-4.776,10.667-10.667     v-38.859c7.005-2.262,13.818-5.079,20.373-8.427l27.477,27.467c4.165,4.164,10.917,4.164,15.083,0l45.248-45.259     c4.164-4.165,4.164-10.917,0-15.083l-27.467-27.467c3.347-6.556,6.165-13.369,8.427-20.373h38.859     c5.891,0,10.667-4.776,10.667-10.667v-64C512.013,143.449,507.238,138.673,501.347,138.673z M490.68,202.673h-36.203     c-4.863,0.001-9.11,3.291-10.325,8c-2.726,10.59-6.927,20.745-12.48,30.165c-2.471,4.189-1.796,9.52,1.643,12.96l25.6,25.6     l-30.176,30.176l-25.6-25.6c-3.44-3.438-8.771-4.114-12.96-1.643c-9.421,5.553-19.575,9.754-30.165,12.48     c-4.709,1.216-7.999,5.462-8,10.325v36.203h-42.667l0-36.192c-0.001-4.863-3.291-9.11-8-10.325     c-10.59-2.726-20.745-6.927-30.165-12.48c-4.189-2.471-9.52-1.796-12.96,1.643l-25.6,25.6l-30.176-30.176l25.6-25.6     c3.438-3.44,4.114-8.771,1.643-12.96c-5.553-9.421-9.754-19.575-12.48-30.165c-1.216-4.709-5.462-7.999-10.325-8H170.68v-42.667     h36.213c4.863-0.001,9.11-3.291,10.325-8c2.726-10.59,6.927-20.745,12.48-30.165c2.471-4.189,1.796-9.52-1.643-12.96l-25.6-25.6     l30.165-30.187l25.6,25.6c3.44,3.438,8.771,4.114,12.96,1.643c9.421-5.553,19.575-9.754,30.165-12.48     c4.709-1.216,7.999-5.462,8-10.325V21.34h42.667v36.203c-0.005,4.864,3.281,9.115,7.989,10.336     c10.59,2.726,20.745,6.927,30.165,12.48c4.189,2.471,9.52,1.796,12.96-1.643l25.6-25.6l30.187,30.165l-25.6,25.6     c-3.438,3.44-4.114,8.771-1.643,12.96c5.553,9.421,9.754,19.575,12.48,30.165c1.216,4.709,5.462,7.999,10.325,8h36.203V202.673z" data-original="#000000" class="active-path" data-old_color="#1eaf13" fill="#1eaf13"/>
			<path d="M330.68,117.34c-35.346,0-64,28.654-64,64c0,35.346,28.654,64,64,64c35.332-0.035,63.965-28.668,64-64     C394.68,145.994,366.026,117.34,330.68,117.34z M330.68,224.007c-23.564,0-42.667-19.103-42.667-42.667     s19.103-42.667,42.667-42.667s42.667,19.102,42.667,42.667S354.244,224.007,330.68,224.007z" data-original="#000000" class="active-path" data-old_color="#1eaf13" fill="#1eaf13"/>
		</g>
	</g>
</g></g> </svg>
