<?xml version="1.0"?>
<svg xmlns="http://www.w3.org/2000/svg" xmlns:xlink="http://www.w3.org/1999/xlink" version="1.1" id="Capa_1" x="0px" y="0px" viewBox="0 0 512 512" style="enable-background:new 0 0 512 512;" xml:space="preserve" width="512px" height="512px"><g><g>
	<g>
		<path d="M457.21,364.789c6.181-9.432,9.79-20.694,9.79-32.789c0-22.756-12.735-42.594-31.452-52.762    c-3.174-24.767-11.641-49.136-24.751-70.982c-13.087-21.807-30.543-40.728-50.745-55.12c-4.634-29.031-25.986-52.54-53.842-60.348    C312.391,83.357,316,72.095,316,60c0-33.084-26.916-60-60-60s-60,26.916-60,60c0,12.095,3.609,23.357,9.79,32.789    c-27.856,7.807-49.208,31.317-53.842,60.348c-20.202,14.391-37.658,33.313-50.745,55.12    c-13.11,21.846-21.577,46.214-24.751,70.982C57.735,289.406,45,309.244,45,332c0,12.095,3.609,23.357,9.79,32.789    C23.224,373.636,0,402.647,0,437v60c0,8.284,6.716,15,15,15h180c8.284,0,15-6.716,15-15v-20.98c14.082,3.303,29.47,4.98,46,4.98    c16.529,0,31.918-1.677,46-4.98V497c0,8.284,6.716,15,15,15h180c8.284,0,15-6.716,15-15v-60    C512,402.647,488.776,373.636,457.21,364.789z M437,332c0,16.542-13.458,30-30,30s-30-13.458-30-30s13.458-30,30-30    S437,315.458,437,332z M256,30c16.542,0,30,13.458,30,30s-13.458,30-30,30s-30-13.458-30-30S239.458,30,256,30z M181,165    c0-24.813,20.187-45,45-45h60c24.813,0,45,20.187,45,45v45H181V165z M105,302c16.542,0,30,13.458,30,30s-13.458,30-30,30    s-30-13.458-30-30S88.458,302,105,302z M180,482H30v-45c0-24.813,20.187-45,45-45h60c24.813,0,45,20.187,45,45V482z M302,437    v8.003c-13.531,3.935-29.22,5.997-46,5.997c-16.781,0-32.469-2.062-46-5.997V437c0-34.353-23.224-63.364-54.79-72.211    c6.181-9.432,9.79-20.694,9.79-32.789c0-32.062-25.279-58.33-56.952-59.923c6.144-29.702,21.405-57.647,42.952-79.028V225    c0,8.284,6.716,15,15,15h180c8.284,0,15-6.716,15-15v-31.951c21.547,21.381,36.808,49.326,42.952,79.028    C372.279,273.67,347,299.938,347,332c0,12.095,3.609,23.357,9.79,32.789C325.224,373.636,302,402.647,302,437z M482,482H332v-45    c0-24.813,20.187-45,45-45h60c24.813,0,45,20.187,45,45V482z" data-original="#000000" class="active-path" data-old_color="#1eaf13" fill="#1eaf13"/>
	</g>
</g><g>
	<g>
		<path d="M311.606,275.393c-5.857-5.858-15.355-5.858-21.213,0L241,324.787l-19.394-19.394c-5.857-5.858-15.355-5.858-21.213,0    c-5.858,5.858-5.858,15.355,0,21.213l30,30c5.857,5.857,15.355,5.858,21.213,0l60-60    C317.464,290.749,317.464,281.251,311.606,275.393z" data-original="#000000" class="active-path" data-old_color="#1eaf13" fill="#1eaf13"/>
	</g>
</g></g> </svg>
